# xmcd
#
# Track frame offsets: 
#        150
#        16540
#        31342
#        47032
#        64062
#        83965
#        98260
#        114700
#        127690
#        141653
#        154321
#        170242
#        187818
#        202847
#        222642
#        240849
#        258922
#        273092
#        293599
#        310108
#
# Disc length: 4371 seconds
#
# Revision: 0
# Processed by: cddbd v1.4PL0 Copyright (c) Steve Scherf et al.
# Submitted via: ExactAudioCopy v0.90b4
#
DISCID=0a111114
DTITLE=Rosanne Cash - Rhythm And Romance\\ King's Record Shop
DYEAR=2003
DGENRE=Country
TTITLE0=Hold On
TTITLE1=I Don't Know Why You Don't Want Me
TTITLE2=Never Be You
TTITLE3=Second To None
TTITLE4=Halfway House
TTITLE5=Pink Bedroom
TTITLE6=Never Alone
TTITLE7=My Old Man
TTITLE8=Never Gonna Hurt
TTITLE9=Closing Time
TTITLE10=Rosie Strike Back
TTITLE11=The Way We Make A Broken Heart
TTITLE12=If You Change Your Mind
TTITLE13=The Real Me
TTITLE14=Somewhere Sometime
TTITLE15=Runaway Train
TTITLE16=Tennessee Flat Top Box
TTITLE17=I  Don't Have To Crawl
TTITLE18=Green, Yellow And Red
TTITLE19=Why Don't You Quit Leaving Me Alone
EXTD=
EXTT0=
EXTT1=
EXTT2=
EXTT3=
EXTT4=
EXTT5=
EXTT6=
EXTT7=
EXTT8=
EXTT9=
EXTT10=
EXTT11=
EXTT12=
EXTT13=
EXTT14=
EXTT15=
EXTT16=
EXTT17=
EXTT18=
EXTT19=
PLAYORDER=
